Coordinates
version=1
nRows=9
nColumns=24
inDegrees=yes

Units are S.I. units (second, meters, Newtons, ...)
Angles are in degrees.

endheader
time	pelvis_tilt	pelvis_list	pelvis_rotation	pelvis_tx	pelvis_ty	pelvis_tz	hip_flexion_r	hip_adduction_r	hip_rotation_r	knee_angle_r	ankle_angle_r	subtalar_angle_r	mtp_angle_r	hip_flexion_l	hip_adduction_l	hip_rotation_l	knee_angle_l	ankle_angle_l	subtalar_angle_l	mtp_angle_l	lumbar_extension	lumbar_bending	lumbar_rotation
      4.56000000	      1.66459380	      4.29960591	      4.85352423	     -2.16920315	      0.69359347	      0.25476776	     21.13404358	     -2.34647797	     -0.81642006	     -8.29039391	      6.41730963	     -5.06567100	      0.00000000	    -21.41436894	      6.69927294	     15.57138627	    -18.26406328	      3.82538662	     -1.79473301	      0.00000000	    -19.69225466	     -3.22037257	     -6.31657175
      4.57000000	      1.89472282	      3.56572779	      5.04642596	     -2.15477670	      0.69330498	      0.25548266	     21.44609901	     -1.40676311	     -0.98963149	    -11.33297340	      5.90243122	     -6.26092897	      0.00000000	    -19.64985202	      5.80818461	     12.07368025	    -23.06208743	      2.56196573	      1.21398035	      0.00000000	    -19.69660754	     -2.06492897	     -6.09798743
      4.58000000	      1.60820460	      2.81122644	      5.19410588	     -2.14044723	      0.69253085	      0.25628888	     22.26330266	     -0.39281911	     -0.36236374	    -14.32676649	      5.45392173	     -7.90796221	      0.00000000	    -16.98786030	      4.87332176	      9.03639899	    -28.18823043	      0.22344443	      2.69736025	      0.00000000	    -19.03212320	     -0.98320877	     -5.87170051
      4.59000000	      1.67733967	      1.83093552	      5.30836758	     -2.12625112	      0.69228133	      0.25713178	     22.59924127	      0.91048510	     -0.05933387	    -17.12656807	      5.46085787	     -9.02588138	      0.00000000	    -14.51866760	      3.58542362	      6.55536882	    -33.34281968	     -2.78943544	      3.14647917	      0.00000000	    -18.83568626	      0.39255634	     -5.48940193
      4.60000000	      1.56721224	      0.85107361	      5.54885876	     -2.11226032	      0.69199873	      0.25786572	     22.89406586	      2.18852241	      0.22315663	    -19.49671588	      5.82523792	    -10.09164589	      0.00000000	    -11.62603991	      2.27642874	      4.76300416	    -38.55154435	     -6.48263400	      2.35051428	      0.00000000	    -18.42173627	      1.72624954	     -5.21704222
      4.61000000	      1.62664395	     -0.19557508	      5.91470364	     -2.09856010	      0.69201039	      0.25844452	     22.75425989	      3.48013535	      0.08130690	    -21.35590919	      6.73220661	    -10.67284484	      0.00000000	     -8.75283912	      0.88413565	      3.60063205	    -43.66748158	    -10.27845911	      0.85079560	      0.00000000	    -18.25291485	      3.14692340	     -4.98160399
      4.62000000	      1.64723642	     -1.28718803	      6.32000465	     -2.08514618	      0.69209800	      0.25893534	     22.38926669	      4.77527368	     -0.27137931	    -22.64699641	      7.87076256	    -10.97626167	      0.00000000	     -5.72714877	     -0.45249400	      3.02561942	    -48.59711918	    -13.78393407	     -0.97715893	      0.00000000	    -18.06009050	      4.60576341	     -4.73131526
      4.63000000	      1.58854221	     -2.34518681	      6.77452364	     -2.07199982	      0.69223335	      0.25931614	     21.83960186	      5.97823187	     -0.83540122	    -23.37407260	      9.21378594	    -11.03921626	      0.00000000	     -2.55111224	     -1.59418184	      2.98649401	    -53.26196632	    -16.61945326	     -2.81835682	      0.00000000	    -17.75965205	      5.98396497	     -4.51321001
      4.64000000	      1.25794899	     -3.34581980	      7.16305493	     -2.05902706	      0.69219176	      0.25961318	     21.36665276	      7.06346265	     -1.48814580	    -23.66478699	     10.73637274	    -10.70801359	      0.00000000	      0.90424555	     -2.42104613	      3.36933029	    -57.59732657	    -18.31800035	     -4.21721981	      0.00000000	    -17.07912899	      7.23875166	     -4.20336823
